<svg xmlns="http://www.w3.org/2000/svg" viewBox="0 0 32 32">
  <rect width="32" height="32" rx="6" fill="#DC143C"/>
  <path d="M8 11h16M8 11a2 2 0 0 0-2 2v6a2 2 0 0 0 2 2h16a2 2 0 0 0 2-2v-6a2 2 0 0 0-2-2M8 11V9a2 2 0 0 1 2-2h12a2 2 0 0 1 2 2v2" stroke="white" stroke-width="1.5" fill="none" stroke-linecap="round" stroke-linejoin="round"/>
  <path d="M10 14h12M10 16h12" stroke="white" stroke-width="1" opacity="0.7" fill="none"/>
  <circle cx="26" cy="6" r="3" fill="#FFD700" stroke="white" stroke-width="1"/>
</svg>
